<?xml version="1.0" encoding="UTF-8"?>
<svg version="1.1" xmlns="http://www.w3.org/2000/svg" width="409" height="403">
<path d="M0 0 C0.97455139 0.00054382 1.94910278 0.00108765 2.95318604 0.00164795 C17.5091858 0.03900091 31.34258241 0.75094548 45.5 4.375 C46.3859082 4.58398926 47.27181641 4.79297852 48.18457031 5.00830078 C80.80112136 12.70959113 111.20488359 27.24177314 136.5 49.375 C137.325 50.07882813 138.15 50.78265625 139 51.5078125 C179.61435037 86.91844923 198.87817432 138.37761272 204.34057617 190.8972168 C204.54345643 194.05040472 204.5 197.21529202 204.5 200.375 C148.07 200.375 91.64 200.375 33.5 200.375 C33.5 199.715 33.5 199.055 33.5 198.375 C35.14892578 197.10986328 35.14892578 197.10986328 37.4453125 195.6953125 C38.27546875 195.17839844 39.105625 194.66148437 39.9609375 194.12890625 C40.84007812 193.59136719 41.71921875 193.05382812 42.625 192.5 C45.16563929 190.9274055 47.70497608 189.35351623 50.23486328 187.76367188 C52.09658329 186.62231992 54.01128385 185.56783703 55.9375 184.5390625 C59.60259441 181.44384558 60.27244059 178.17872139 61.375 173.625 C61.58640625 172.83222656 61.7978125 172.03945312 62.015625 171.22265625 C62.53087829 169.27874612 63.0182725 167.32748845 63.5 165.375 C45.5807861 174.75709248 28.00168637 184.76863285 10.45898438 194.83276367 C2.57536359 199.34911011 -5.35650007 203.77746541 -13.29101562 208.20361328 C-20.88407051 212.44769884 -28.42737891 216.7709954 -35.92822266 221.17602539 C-41.3974177 224.375 -41.3974177 224.375 -42.5 224.375 C-42.5 215.465 -42.5 206.555 -42.5 197.375 C-30.41960215 190.49376072 -18.31752794 183.69003328 -6.0625 177.125 C1.40962994 173.12201506 8.86331671 169.10026451 16.23608398 164.91699219 C23.3884327 160.85957898 30.58257298 156.87741597 37.77484131 152.89135742 C43.43692841 149.75328119 49.09783351 146.61467467 54.72265625 143.41015625 C55.4703125 142.98476562 56.21796875 142.559375 56.98828125 142.12109375 C58.33027725 141.35532202 59.67026756 140.58601997 61.0078125 139.8125 C65.28060662 137.375 65.28060662 137.375 67.5 137.375 C67.5 133.085 67.5 128.795 67.5 124.375 C55.966901 130.36560766 44.48488916 136.43563366 33.08740234 142.68066406 C25.90947917 146.61235985 18.7092967 150.50115785 11.5 154.375 C3.29655806 158.78375958 -4.89198012 163.2180328 -13.0625 167.6875 C-19.77952259 171.35597162 -26.50094996 175.01571598 -33.25 178.625 C-33.95970947 179.00825439 -34.66941895 179.39150879 -35.40063477 179.78637695 C-40.26787702 182.375 -40.26787702 182.375 -42.5 182.375 C-42.69826372 177.62467759 -42.84314101 172.87677568 -42.93945312 168.12329102 C-42.9796058 166.50795542 -43.03414477 164.89290922 -43.10351562 163.27856445 C-43.65796802 150.04101345 -43.65796802 150.04101345 -41.14501953 146.42553711 C-38.9990855 145.04826637 -36.89524255 144.25109241 -34.5 143.375 C-32.44380032 142.28125123 -30.40047123 141.16312576 -28.3671875 140.02734375 C-26.6419092 139.10833265 -24.91657875 138.18941322 -23.18933105 137.27410889 C-20.06309812 135.61718229 -16.9420422 133.95054688 -13.8203125 132.28515625 C-13.19415039 131.95140991 -12.56798828 131.61766357 -11.92285156 131.27380371 C-6.34680219 128.29949756 -0.79396306 125.28369176 4.75 122.25 C12.40506798 118.06163055 20.07322197 113.89844541 27.75 109.75 C37.70837814 104.36567794 47.6198402 98.90140251 57.5 93.375 C56.51 87.93 56.51 87.93 55.5 82.375 C54.37078125 82.99991333 54.37078125 82.99991333 53.21875 83.63745117 C49.64643187 85.61355221 46.07345008 87.58844679 42.5 89.5625 C41.84441101 89.92469635 41.18882202 90.2868927 40.5133667 90.6600647 C31.74063035 95.50490754 22.94804611 100.30969913 14.125 105.0625 C6.29785647 109.2796184 -1.46289997 113.59802545 -9.1875 118 C-16.83338884 122.35082623 -24.52836988 126.58861347 -32.3125 130.6875 C-33.20864014 131.16203613 -34.10478027 131.63657227 -35.02807617 132.12548828 C-35.85025635 132.55458496 -36.67243652 132.98368164 -37.51953125 133.42578125 C-38.24245361 133.80387939 -38.96537598 134.18197754 -39.71020508 134.5715332 C-41.5 135.375 -41.5 135.375 -43.5 135.375 C-43.55066494 132.75731161 -43.54914557 130.15341981 -43.49609375 127.53515625 C-43.44916951 124.269394 -43.66524569 121.06475362 -43.91015625 117.80859375 C-44.65406449 103.16766884 -44.65406449 103.16766884 -41.10498047 98.56640625 C-37.04633823 95.2521291 -32.24226517 93.43997858 -27.3984375 91.55761719 C-21.95853928 89.33803607 -16.79128574 86.54562049 -11.5625 83.875 C-9.32676459 82.76312058 -7.0897967 81.6537157 -4.8515625 80.546875 C0.6570744 77.80821077 6.12411748 75.00040133 11.5625 72.125 C12.31192871 71.72877441 13.06135742 71.33254883 13.83349609 70.92431641 C17.68703798 68.88063078 21.53214553 66.82151102 25.375 64.7578125 C26.16253662 64.33661133 26.95007324 63.91541016 27.76147461 63.48144531 C29.25913669 62.67993788 30.75485502 61.87478426 32.24829102 61.06542969 C37.27601619 58.375 37.27601619 58.375 39.5 58.375 C39.066875 57.43527344 39.066875 57.43527344 38.625 56.4765625 C38.25375 55.65929688 37.8825 54.84203125 37.5 54 C37.12875 53.18789063 36.7575 52.37578125 36.375 51.5390625 C35.5 49.375 35.5 49.375 35.5 47.375 C18.97902753 55.55559585 18.97902753 55.55559585 2.625 64.0625 C-6.71143815 69.03375403 -16.16702105 73.76563653 -25.625 78.5 C-26.40244568 78.88997162 -27.17989136 79.27994324 -27.980896 79.68173218 C-30.19705286 80.79274133 -32.41464912 81.90081585 -34.6328125 83.0078125 C-35.31104065 83.34791855 -35.9892688 83.6880246 -36.68804932 84.03843689 C-41.38474829 86.375 -41.38474829 86.375 -42.5 86.375 C-42.5 73.835 -42.5 61.295 -42.5 48.375 C-26.28999911 39.45405991 -9.95370677 30.833888 6.5 22.375 C6.68490007 20.31432967 6.68490007 20.31432967 5.375 18.6875 C3.52723883 17.10123801 3.52723883 17.10123801 0.91870117 17.55444336 C-3.37973565 18.58615415 -7.09595704 20.29427542 -11.07421875 22.19140625 C-12.28269218 22.75528297 -12.28269218 22.75528297 -13.51557922 23.33055115 C-16.0762038 24.52593348 -18.63221485 25.73075064 -21.1875 26.9375 C-23.75375497 28.14722697 -26.32094927 29.35470598 -28.89155579 30.55516052 C-30.48790799 31.30078307 -32.0817527 32.05180273 -33.67277527 32.80873108 C-39.16251554 35.375 -39.16251554 35.375 -42.5 35.375 C-42.5 28.775 -42.5 22.175 -42.5 15.375 C-51.08 15.375 -59.66 15.375 -68.5 15.375 C-68.17 17.685 -67.84 19.995 -67.5 22.375 C-67.58089364 25.02361428 -67.72711628 27.67101555 -67.9375 30.3125 C-68.01581055 31.33827148 -68.01581055 31.33827148 -68.09570312 32.38476562 C-68.22369898 34.04871169 -68.36087719 35.7119473 -68.5 37.375 C-75.14766356 35.3520602 -81.31944187 32.72427071 -87.5625 29.6875 C-88.42810547 29.27177734 -89.29371094 28.85605469 -90.18554688 28.42773438 C-92.29270985 27.41489913 -94.3974094 26.3972841 -96.5 25.375 C-95.5 22.375 -95.5 22.375 -93.92797852 21.3034668 C-93.25178467 20.98031494 -92.57559082 20.65716309 -91.87890625 20.32421875 C-90.73748169 19.77556152 -90.73748169 19.77556152 -89.57299805 19.21582031 C-88.74453369 18.83522461 -87.91606934 18.45462891 -87.0625 18.0625 C-86.20503174 17.66514648 -85.34756348 17.26779297 -84.46411133 16.85839844 C-72.42868078 11.40030361 -60.17190655 7.61416522 -47.3125 4.625 C-46.45873779 4.42616211 -45.60497559 4.22732422 -44.7253418 4.02246094 C-29.79731798 0.72928607 -15.2250141 -0.03197108 0 0 Z " fill="#0202FE" transform="translate(204.5,-0.375)"/>
<path d="M0 0 C1.70603392 0.00141282 3.41207087 0.00061392 5.11810303 -0.00221252 C9.71881555 -0.00363896 14.31886771 0.02562462 18.91942763 0.06065726 C23.73867496 0.09205053 28.55793975 0.09486169 33.37727356 0.1007843 C42.4895806 0.11628479 51.60158539 0.1572616 60.71375972 0.20753175 C71.09346014 0.26354371 81.47317547 0.29094146 91.85298955 0.31600893 C113.19228175 0.36818102 134.53130245 0.45604909 155.87036133 0.56762695 C155.88624782 2.80629202 155.89757638 5.04498973 155.90698242 7.28369141 C155.91378021 8.53036087 155.920578 9.77703033 155.92758179 11.06147766 C155.86062772 15.16404823 155.36256175 18.74969136 154.49536133 22.75512695 C154.24012695 23.98618164 153.98489258 25.21723633 153.72192383 26.4855957 C152.87036133 29.56762695 152.87036133 29.56762695 150.87036133 32.56762695 C148.02403641 32.93283463 148.02403641 32.93283463 144.3081665 32.91925049 C143.62621523 32.92095835 142.94426395 32.92266622 142.24164748 32.92442584 C139.94478754 32.92669601 137.64858441 32.90763406 135.35180664 32.88891602 C133.7092249 32.88647365 132.06664054 32.88544432 130.42405701 32.88572693 C126.87886759 32.88389553 123.33385194 32.87318609 119.78870392 32.85605621 C114.17261923 32.83017539 108.55674209 32.83120417 102.94061279 32.83734131 C86.96739683 32.8509434 70.99436423 32.83347285 55.02124023 32.77709961 C46.20500037 32.74621912 37.38910065 32.74062381 28.57282901 32.76198554 C23.00155097 32.77404769 17.43151858 32.75541094 11.86039877 32.7135005 C8.37312328 32.69473776 4.88638237 32.70557617 1.39912605 32.72435188 C-0.20435217 32.72722798 -1.80790672 32.71838339 -3.4112339 32.69618797 C-14.85875107 32.54697169 -22.22549487 34.73408698 -32.12963867 40.56762695 C-33.57563694 41.27372945 -35.03132635 41.96081632 -36.5012207 42.61572266 C-38.379188 43.456357 -40.25707497 44.29717445 -42.13375854 45.14067078 C-44.17282084 46.05659948 -46.21361077 46.96858809 -48.25463867 47.88012695 C-50.33101584 48.81029172 -52.40700672 49.74130793 -54.4826355 50.67314148 C-56.33838156 51.50584509 -58.19515935 52.33624834 -60.05200195 53.16650391 C-62.96094208 54.41647697 -62.96094208 54.41647697 -64.88856125 55.64016533 C-68.01300359 56.93320427 -70.68654796 56.81311824 -74.06451416 56.80813599 C-75.11094656 56.81069926 -75.11094656 56.81069926 -76.17851901 56.81331432 C-78.51552025 56.81660791 -80.85223421 56.80560783 -83.18920898 56.79467773 C-84.86465447 56.79411359 -86.54010045 56.79443024 -88.21554565 56.79556274 C-92.76479371 56.79613714 -97.31393655 56.78436879 -101.86316013 56.77041483 C-106.617081 56.75792193 -111.37100421 56.75673811 -116.12493896 56.75436401 C-125.12756793 56.74814501 -134.1301484 56.73172849 -143.13275599 56.71166503 C-153.38174006 56.68931912 -163.63072643 56.67831589 -173.87972879 56.66827416 C-194.96305917 56.64736264 -216.04634587 56.61217848 -237.12963867 56.56762695 C-238.0975969 54.66352564 -239.06189498 52.75756339 -240.0246582 50.85083008 C-240.5620462 49.78964966 -241.0994342 48.72846924 -241.65310669 47.63513184 C-243.47153247 43.85734035 -244.83187097 40.08395469 -246.00463867 36.06762695 C-246.21604492 35.3921582 -246.42745117 34.71668945 -246.64526367 34.02075195 C-247.6569976 30.68334393 -248.12963867 28.09235688 -248.12963867 24.56762695 C-246.78432524 24.58478477 -246.78432524 24.58478477 -245.41183376 24.6022892 C-223.39201036 24.87673295 -201.37338847 25.04763237 -179.35190487 25.10909462 C-168.70133082 25.14121117 -158.05298173 25.20591784 -147.40332031 25.3527832 C-138.09983113 25.48099535 -128.79845402 25.54253204 -119.49405485 25.53025281 C-114.58527977 25.52593873 -109.68132285 25.5507293 -104.77357292 25.6559639 C-74.07300185 26.28188658 -51.78592549 19.07433603 -25.20627689 3.89851475 C-17.06109315 -0.39544716 -8.9577027 -0.10458772 0 0 Z " fill="#1AA11A" transform="translate(253.129638671875,222.432373046875)"/>
<path d="M0 0 C0.90298828 0.48251221 1.80597656 0.96502441 2.73632812 1.4621582 C9.36855951 5.00387408 16.00573736 8.53568927 22.65625 12.04296875 C36.07389529 19.12592133 49.42329345 26.28057422 62.59472656 33.81469727 C67.94276232 36.86634362 73.332921 39.71630657 78.87890625 42.39453125 C83.40014972 44.7202272 87.78872112 47.26425867 92.1875 49.8125 C93.03924805 50.30572754 93.89099609 50.79895508 94.76855469 51.30712891 C100.86262098 54.86262098 100.86262098 54.86262098 102 56 C102.08851529 58.59359322 102.11525945 61.16039691 102.09765625 63.75390625 C102.09553383 64.91707619 102.09553383 64.91707619 102.09336853 66.10374451 C102.08775345 68.59003494 102.07519846 71.0762366 102.0625 73.5625 C102.05748694 75.24413933 102.0529237 76.92578006 102.04882812 78.60742188 C102.03777913 82.73831566 102.02050445 86.86914276 102 91 C92.96976643 86.57011208 84.13406349 81.99731876 75.4375 76.9375 C70.83298268 74.3422266 66.10234386 72.04026221 61.359375 69.7109375 C58.20114047 68.10244131 55.16696909 66.37945991 52.125 64.5625 C47.71622181 61.94043718 43.22884079 59.56903689 38.625 57.3125 C22.75517236 49.51516344 7.37514831 40.72286351 -8 32 C-8.33 35.3 -8.66 38.6 -9 42 C-8.20851563 42.21398437 -7.41703125 42.42796875 -6.6015625 42.6484375 C-1.83235229 44.4381845 2.28160832 46.98519178 6.625 49.625 C15.27652254 54.8109397 23.98319466 59.88652548 32.75 64.875 C35.13821081 66.23534377 37.52616288 67.59614133 39.9140625 68.95703125 C40.50556091 69.29404556 41.09705933 69.63105988 41.70648193 69.97828674 C48.92115427 74.09129712 56.11431618 78.24157946 63.30224609 82.40112305 C68.33586549 85.31339279 73.37349722 88.21760709 78.43008423 91.08979797 C80.83476438 92.45621618 83.23676795 93.82730213 85.63861084 95.19869995 C87.33218608 96.16311929 89.02957383 97.12083389 90.72705078 98.07836914 C91.7529834 98.66481201 92.77891602 99.25125488 93.8359375 99.85546875 C94.73876465 100.36746826 95.6415918 100.87946777 96.57177734 101.40698242 C99.15110411 103.09913074 101.08473462 104.57335601 103 107 C103.45410156 109.65722656 103.45410156 109.65722656 103.390625 112.640625 C103.37773437 113.71054688 103.36484375 114.78046875 103.3515625 115.8828125 C103.30128906 117.54957031 103.30128906 117.54957031 103.25 119.25 C103.23195312 120.37664062 103.21390625 121.50328125 103.1953125 122.6640625 C103.14820222 125.44356896 103.08243361 128.2213534 103 131 C98.32605514 129.59008547 94.13545024 127.63616347 89.85546875 125.32421875 C89.17710464 124.96279282 88.49874054 124.60136688 87.79981995 124.22898865 C85.59350391 123.05257848 83.3905565 121.87000109 81.1875 120.6875 C78.10390392 119.04101754 75.01867157 117.39761021 71.93359375 115.75390625 C71.16709503 115.34493103 70.40059631 114.93595581 69.61087036 114.5145874 C63.01708524 110.99934737 56.38986986 107.55245888 49.75 104.125 C40.95776943 99.57933276 32.25314712 94.89209047 23.58056641 90.12255859 C16.47520633 86.22641107 9.29224523 82.53412567 2 79 C2.27714844 79.67546875 2.55429687 80.3509375 2.83984375 81.046875 C3.38318359 82.38492188 3.38318359 82.38492188 3.9375 83.75 C4.29714844 84.63171875 4.65679687 85.5134375 5.02734375 86.421875 C6 89 6 89 6.31640625 91.203125 C6.54199219 91.79609375 6.76757812 92.3890625 7 93 C8.65348239 93.69872614 10.32308564 94.35954669 12 95 C13.71934044 95.89375257 15.42309042 96.81790133 17.11328125 97.765625 C18.5969519 98.59610352 18.5969519 98.59610352 20.1105957 99.44335938 C21.16722412 100.03955078 22.22385254 100.63574219 23.3125 101.25 C24.41102295 101.86681641 25.5095459 102.48363281 26.64135742 103.11914062 C35.38121948 108.04384988 44.05576262 113.07763164 52.67895508 118.20410156 C59.30808982 122.11668342 66.07641081 125.6370489 73 129 C73 129.66 73 130.32 73 131 C52.66088574 131.0862952 32.32651813 130.87422762 11.98925781 130.62768555 C7.3525283 130.57175895 2.71575221 130.52192357 -1.92105865 130.47328281 C-5.51542307 130.43451356 -9.10972571 130.39140363 -12.70402527 130.34705925 C-14.41690711 130.32668657 -16.12980942 130.30796521 -17.84272766 130.29092598 C-20.20838544 130.26699932 -22.57388769 130.23695668 -24.93945312 130.20532227 C-25.64464081 130.1995668 -26.34982849 130.19381134 -27.0763855 130.18788147 C-31.88586659 130.11413341 -31.88586659 130.11413341 -33 129 C-36.03045818 83.79269447 -25.24781683 37.72628474 0 0 Z " fill="#0303FE" transform="translate(33,93)"/>
<path d="M0 0 C1.51869662 0.00141291 3.03739666 0.00061376 4.55609131 -0.00221252 C8.65071448 -0.00363865 12.74459529 0.02561937 16.83904696 0.06065726 C21.12844798 0.09205596 25.41786873 0.0948621 29.70736694 0.1007843 C37.81745337 0.11628325 45.92720009 0.15725779 54.03713739 0.20753175 C63.2753558 0.26354866 72.513591 0.29094267 81.75193715 0.31600893 C100.74415932 0.36817751 119.73606595 0.45604238 138.72802734 0.56762695 C137.80230734 2.94740194 136.87046799 5.32447459 135.93505859 7.70043945 C135.67664185 8.36664307 135.4182251 9.03284668 135.15197754 9.71923828 C132.85853397 15.52124191 130.20203663 22.09361767 125.72802734 26.56762695 C123.966849 26.65870857 122.20197969 26.67893401 120.4384613 26.67201233 C119.29064178 26.67023987 118.14282227 26.66846741 116.96022034 26.66664124 C115.68919968 26.65982834 114.41817902 26.65301544 113.10864258 26.64599609 C111.76501594 26.64248181 110.42138777 26.63951413 109.07775879 26.63705444 C106.17486597 26.63136597 103.27199154 26.62334501 100.3691082 26.61403084 C95.7649332 26.60085894 91.16084202 26.60258513 86.55665588 26.60826111 C85.77915731 26.60918119 85.00165874 26.61010127 84.20059961 26.61104923 C81.80414304 26.61402179 79.40768678 26.61718707 77.01123047 26.62036133 C67.09644389 26.63312159 57.18205024 26.63539192 47.26733398 26.59179688 C40.04081228 26.5601274 32.81489312 26.55716248 25.58835369 26.58655638 C21.76892597 26.60100952 17.95070181 26.60158837 14.13137627 26.56715584 C-8.80710459 26.20567498 -8.80710459 26.20567498 -29.27197266 35.56762695 C-61.6521551 57.99981354 -94.95867519 56.10884302 -132.88378286 55.42953157 C-139.72832273 55.313388 -146.56997507 55.30150164 -153.41533113 55.31639075 C-160.89216425 55.33145521 -168.36751556 55.28957658 -175.84398651 55.21729279 C-178.99705722 55.18701903 -182.14947053 55.17406768 -185.30268097 55.17510223 C-188.99840435 55.17283368 -192.69011024 55.11975708 -196.38466072 55.02798462 C-198.37198261 54.98984825 -200.36004946 54.99994866 -202.34770203 55.01177979 C-210.92061266 54.72674889 -210.92061266 54.72674889 -214.80532074 51.39466095 C-216.85802772 48.87146323 -218.59633663 46.35230264 -220.27197266 43.56762695 C-220.77017139 42.80971737 -221.26837013 42.05180779 -221.7816658 41.27093124 C-223.00814129 39.40121239 -224.14765099 37.50017985 -225.27197266 35.56762695 C-225.66513672 34.91407227 -226.05830078 34.26051758 -226.46337891 33.5871582 C-229.27197266 28.84092835 -229.27197266 28.84092835 -229.27197266 26.56762695 C-214.97646955 26.43453999 -200.68094392 26.30413047 -186.38539124 26.17647552 C-178.45110253 26.10557328 -170.51683296 26.03290682 -162.58257484 25.95863819 C-158.72680291 25.92311142 -154.8710183 25.88937949 -151.01522827 25.85588074 C-145.8891695 25.81111036 -140.76328222 25.75812348 -135.63735962 25.6999054 C-123.59389313 25.57388253 -111.57567314 25.55799555 -99.53515625 25.87695312 C-69.89795222 26.91953342 -69.89795222 26.91953342 -42.89697266 15.88012695 C-41.27870264 14.94940107 -39.65490523 14.02822354 -38.02587891 13.11645508 C-35.08498673 11.45626201 -32.18737476 9.75079608 -29.31738281 7.97119141 C-28.38864129 7.41969941 -28.38864129 7.41969941 -27.44113731 6.85706615 C-26.02247202 6.01375413 -24.61661082 5.14842005 -23.22631836 4.2591095 C-15.64936051 -0.13441953 -8.56628771 -0.11241887 0 0 Z " fill="#19A019" transform="translate(258.27197265625,276.432373046875)"/>
<path d="M0 0 C2.52872937 0.01682775 5.05748848 0.02961916 7.58625793 0.03858948 C13.50791873 0.0691669 19.42799176 0.13971655 25.34900886 0.23073488 C32.10363538 0.33225482 38.85834595 0.38104376 45.61354864 0.4259938 C59.47888828 0.51940657 73.34287443 0.67712267 87.20703125 0.87890625 C85.78488416 5.42570471 84.28023155 8.46301732 81.20703125 12.12890625 C80.50578125 12.9796875 79.80453125 13.83046875 79.08203125 14.70703125 C78.6452153 15.17689453 78.20839935 15.64675781 77.75834656 16.13085938 C76.09597478 17.94237939 76.09597478 17.94237939 74.43269348 20.36132812 C70.90488044 24.73018965 67.74464326 27.97331996 62.02328491 28.64813232 C57.77285132 28.85312314 53.54377947 28.68499996 49.29722595 28.45203972 C46.40345303 28.29728936 43.51459844 28.21053044 40.61755371 28.14247131 C36.49979599 28.04495442 32.38313017 27.93078421 28.26620483 27.80288696 C-7.61090832 26.76092319 -38.03597301 26.57035305 -68.22973633 48.42114258 C-74.93744513 53.16687109 -80.41493725 55.47973982 -88.68066406 55.4440918 C-89.53062454 55.45591995 -90.38058502 55.46774811 -91.25630188 55.47993469 C-94.04483402 55.51262528 -96.83238309 55.51577901 -99.62109375 55.515625 C-101.57631825 55.52595298 -103.53153899 55.53701768 -105.48675537 55.54878235 C-109.57867405 55.56817476 -113.67025124 55.57165025 -117.76220703 55.56518555 C-122.9786594 55.55919861 -128.1933266 55.60338407 -133.40941238 55.66107464 C-137.44694995 55.69824219 -141.48406424 55.70296408 -145.5217514 55.69880104 C-147.44331533 55.70165448 -149.36489882 55.7155805 -151.28629303 55.74127769 C-163.13675028 55.88309949 -171.1049988 55.29831522 -180.79296875 47.87890625 C-182.09471016 47.0092324 -183.39970105 46.14435326 -184.7109375 45.2890625 C-185.80578132 44.51352128 -186.89577522 43.73108156 -187.98046875 42.94140625 C-188.5621582 42.52101074 -189.14384766 42.10061523 -189.74316406 41.66748047 C-202.86200919 32.05885207 -202.86200919 32.05885207 -205.79296875 25.87890625 C-205.14196418 25.88020507 -204.49095961 25.88150389 -203.82022762 25.88284206 C-187.91714477 25.91215254 -172.01462164 25.90249515 -156.11161709 25.85044003 C-148.42072416 25.8261873 -140.73022337 25.81471342 -133.03930664 25.83422852 C-126.32918001 25.85122151 -119.61960242 25.84331524 -112.90954739 25.80655867 C-109.36245192 25.78797002 -105.81628304 25.78113672 -102.26919365 25.80421257 C-80.99242295 26.02772494 -80.99242295 26.02772494 -61.79296875 17.87890625 C-60.37008041 17.15440516 -58.93907719 16.44532088 -57.49609375 15.76171875 C-55.78679687 14.89160156 -55.78679687 14.89160156 -54.04296875 14.00390625 C-53.43290891 13.70404532 -52.82284906 13.4041844 -52.19430256 13.09523678 C-48.64704578 11.34978547 -45.18159956 9.54200086 -41.772995 7.53822327 C-28.02573716 -0.19494596 -15.48085956 -0.30636656 0 0 Z " fill="#1AA01A" transform="translate(277.79296875,326.12109375)"/>
<path d="M0 0 C2.39840679 1.03964861 4.66900078 2.14132422 6.98046875 3.3515625 C7.6893071 3.71464508 8.39814545 4.07772766 9.12846375 4.45181274 C10.64626941 5.23018047 12.16229384 6.01202948 13.67669678 6.79699707 C15.93847171 7.96814074 18.20557086 9.12814045 20.47509766 10.28417969 C25.09280686 12.6376213 29.70317143 15.00519572 34.3125 17.375 C35.11994659 17.78975586 35.92739319 18.20451172 36.75930786 18.63183594 C47.3896769 24.09287537 58.00286585 29.58317701 68.55859375 35.1875 C71.6840123 36.83357742 74.84053017 38.42026508 78 40 C78 51.22 78 62.44 78 74 C73.74692223 73.14938445 71.66601696 72.46749489 68.0625 70.40234375 C66.61931396 69.58358765 66.61931396 69.58358765 65.14697266 68.74829102 C64.10847168 68.15072998 63.0699707 67.55316895 62 66.9375 C59.73753528 65.65266607 57.47449128 64.3688518 55.2109375 63.0859375 C54.62307465 62.75173294 54.03521179 62.41752838 53.42953491 62.07319641 C47.46116488 58.68289735 41.45277457 55.36678314 35.43811035 52.05950928 C32.40300261 50.39053718 29.36944202 48.71875886 26.3359375 47.046875 C25.73378418 46.71505219 25.13163086 46.38322937 24.51123047 46.04135132 C14.59504769 40.57437705 4.70201852 35.06554322 -5.19335938 29.56103516 C-9.12809422 27.37256138 -13.06393402 25.18607855 -17 23 C-15.18821842 14.61508819 -7.67975146 7.22068018 -2 1 C-1.34 0.67 -0.68 0.34 0 0 Z " fill="#0404FE" transform="translate(58,61)"/>
<path d="M0 0 C4.73413424 2.15739684 9.39854838 4.42556518 14.0390625 6.77734375 C15.01770264 7.27024902 15.99634277 7.7631543 17.00463867 8.27099609 C35.39242981 17.56821106 35.39242981 17.56821106 37.3515625 19.52734375 C37.44018242 22.33897755 37.46678605 25.1259263 37.44921875 27.9375 C37.4478038 28.77953476 37.44638885 29.62156952 37.44493103 30.48912048 C37.43931513 33.1893971 37.42675998 35.88959203 37.4140625 38.58984375 C37.40904955 40.41601443 37.40448629 42.24218641 37.40039062 44.06835938 C37.38934054 48.55471917 37.37206529 53.04101759 37.3515625 57.52734375 C27.18099665 52.49422182 17.09719999 47.33890279 7.1015625 41.96484375 C5.35746094 41.03381836 5.35746094 41.03381836 3.578125 40.08398438 C-3.01224684 36.54921558 -9.51619957 32.90463738 -15.9453125 29.08398438 C-20.08226749 26.7016483 -24.34626015 24.5927696 -28.6484375 22.52734375 C-27.085648 18.37284744 -24.04656602 16.01137898 -20.7109375 13.27734375 C-20.13335693 12.80079346 -19.55577637 12.32424316 -18.96069336 11.83325195 C-17.7731538 10.86091833 -16.58180946 9.8932132 -15.38671875 8.93017578 C-14.27116612 8.02989974 -13.16123428 7.122588 -12.05859375 6.20654297 C-10.62709904 5.02091213 -9.16957047 3.86692336 -7.7109375 2.71484375 C-6.45990234 1.71517578 -6.45990234 1.71517578 -5.18359375 0.6953125 C-2.6484375 -0.47265625 -2.6484375 -0.47265625 0 0 Z " fill="#0505FE" transform="translate(98.6484375,29.47265625)"/>
<path d="M0 0 C2.31305259 0.05032257 4.62621294 0.09592086 6.93945312 0.13671875 C12.52454689 0.24526636 18.10549378 0.41120061 23.6875 0.625 C11.6154254 10.56516692 -3.36952574 16.49558112 -18.3125 20.625 C-19.13572754 20.86621582 -19.95895508 21.10743164 -20.80712891 21.35595703 C-38.56978001 26.44776058 -56.01967875 26.16977842 -74.3125 25.625 C-71.97915062 23.01956897 -69.632867 21.60406348 -66.5078125 20.05859375 C-65.52941406 19.57197266 -64.55101562 19.08535156 -63.54296875 18.58398438 C-62.00576172 17.83084961 -62.00576172 17.83084961 -60.4375 17.0625 C-59.48230469 16.58748047 -58.52710938 16.11246094 -57.54296875 15.62304688 C-55.41897679 14.57198522 -53.28514244 13.54068711 -51.14428711 12.52441406 C-48.26558941 11.13761223 -45.50423202 9.60407237 -42.73266602 8.01464844 C-28.377381 0.08308529 -16.16594124 -0.62145128 0 0 Z " fill="#19A019" transform="translate(280.3125,377.375)"/>
<path d="M0 0 C59.4 0 118.8 0 180 0 C180 0.33 180 0.66 180 1 C165.50332814 1.13367481 151.0066296 1.26409415 136.50989819 1.39115143 C129.77098946 1.45028225 123.03209237 1.51035299 116.29321289 1.57275391 C78.19353599 1.92469077 40.10103744 2.07064272 2 2 C2.33 3.32 2.66 4.64 3 6 C2.01 6.495 2.01 6.495 1 7 C0.67 4.69 0.34 2.38 0 0 Z " fill="#63BC63" transform="translate(5,247)"/>
</svg>
